<?xml version="1.0" standalone="no"?>
<!DOCTYPE svg PUBLIC "-//W3C//DTD SVG 20010904//EN"
 "http://www.w3.org/TR/2001/REC-SVG-20010904/DTD/svg10.dtd">
<svg version="1.0" xmlns="http://www.w3.org/2000/svg"
 width="260.000000pt" height="260.000000pt" viewBox="0 0 260.000000 260.000000"
 preserveAspectRatio="xMidYMid meet">
<metadata>
Created by potrace 1.11, written by Peter Selinger 2001-2013
</metadata>
<g transform="translate(0.000000,260.000000) scale(0.100000,-0.100000)"
fill="#000000" stroke="none">
<path d="M1168 2545 c-1 -1 -25 -6 -52 -9 -525 -70 -958 -496 -1050 -1031 -26
-153 -16 -360 25 -515 123 -460 485 -801 961 -906 99 -22 339 -26 443 -8 168
29 351 101 480 187 74 50 177 136 221 185 18 20 45 51 59 67 47 52 134 191
170 268 82 181 116 349 110 552 -4 145 -6 168 -34 277 -102 398 -407 731 -794
867 -96 33 -103 35 -222 56 -69 12 -307 20 -317 10z m327 -109 c91 -21 159
-41 233 -72 363 -150 625 -475 697 -864 18 -97 12 -350 -10 -440 -61 -252
-185 -458 -373 -620 -333 -287 -792 -359 -1196 -188 -362 155 -624 495 -686
893 -35 223 18 507 135 716 169 302 489 527 815 574 25 4 47 8 49 10 6 6 304
-2 336 -9z"/>
<path d="M980 2095 c-5 -6 -84 -181 -175 -390 -92 -209 -178 -405 -192 -435
-111 -244 -170 -390 -157 -391 8 0 71 -1 140 -2 l126 0 23 54 c142 340 339
807 345 819 6 11 18 -5 42 -58 l33 -73 55 42 c30 23 81 54 112 70 l58 29 -26
58 c-14 31 -48 109 -76 172 l-51 115 -124 0 c-74 0 -128 -4 -133 -10z"/>
<path d="M1555 1748 c-141 -19 -273 -84 -372 -184 -96 -98 -145 -195 -167
-334 -61 -379 208 -707 595 -724 195 -8 366 52 501 176 l38 34 -70 69 c-68 67
-69 68 -92 51 -139 -102 -199 -126 -324 -131 -237 -10 -424 174 -426 420 -4
379 406 566 710 325 l51 -40 35 38 c106 115 106 115 88 135 -29 32 -145 104
-202 125 -111 40 -249 56 -365 40z"/>
<path d="M1466 1476 c-40 -18 -110 -89 -136 -140 l-23 -42 88 -210 88 -209
136 1 c75 1 139 2 143 3 8 1 -1 29 -36 104 -21 46 -179 407 -209 480 -13 30
-12 30 -51 13z"/>
</g>
</svg>
